<svg width="35" height="35" viewBox="0 0 35 35" fill="none" xmlns="http://www.w3.org/2000/svg">
<g clip-path="url(#clip0_5_317)">
<path d="M17.5 33.158C26.1476 33.158 33.1579 26.1477 33.1579 17.5001C33.1579 8.85244 26.1476 1.84216 17.5 1.84216C8.85238 1.84216 1.8421 8.85244 1.8421 17.5001C1.8421 26.1477 8.85238 33.158 17.5 33.158Z" fill="#55AD63" stroke="white" stroke-width="4"/>
<path d="M21.1842 17.2605C21.4409 17.2605 21.6503 17.3483 21.8124 17.5239C21.988 17.686 22.0758 17.8954 22.0758 18.1521C22.0758 18.4088 21.988 18.6249 21.8124 18.8005C21.6503 18.9626 21.4409 19.0437 21.1842 19.0437H18.0232V22.1845C18.0232 22.4412 17.9354 22.6572 17.7597 22.8329C17.5976 23.0085 17.3883 23.0963 17.1316 23.0963C16.8749 23.0963 16.6588 23.0085 16.4832 22.8329C16.3211 22.6572 16.24 22.4412 16.24 22.1845V19.0437H13.079C12.8223 19.0437 12.6062 18.9626 12.4305 18.8005C12.2684 18.6249 12.1874 18.4088 12.1874 18.1521C12.1874 17.8954 12.2684 17.686 12.4305 17.5239C12.6062 17.3483 12.8223 17.2605 13.079 17.2605H16.24V14.0995C16.24 13.8428 16.3211 13.6334 16.4832 13.4713C16.6588 13.2957 16.8749 13.2079 17.1316 13.2079C17.3883 13.2079 17.5976 13.2957 17.7597 13.4713C17.9354 13.6334 18.0232 13.8428 18.0232 14.0995V17.2605H21.1842Z" fill="white"/>
</g>
<defs>
<clipPath id="clip0_5_317">
<rect width="35" height="35" fill="white"/>
</clipPath>
</defs>
</svg>
