<svg width="42" height="42" viewBox="0 0 42 42" fill="none" xmlns="http://www.w3.org/2000/svg">
<path fill-rule="evenodd" clip-rule="evenodd" d="M21 42C32.598 42 42 32.598 42 21C42 9.40201 32.598 0 21 0C9.40201 0 0 9.40201 0 21C0 32.598 9.40201 42 21 42ZM30.9233 16.4859C31.6922 15.717 31.6922 14.4705 30.9233 13.7016C30.1544 12.9328 28.9081 12.9328 28.1392 13.7016L17.7188 24.122L13.8609 20.2641C13.092 19.4953 11.8455 19.4953 11.0766 20.2641C10.3078 21.033 10.3078 22.2795 11.0766 23.0484L16.3266 28.2983C17.0955 29.0672 18.342 29.0672 19.1109 28.2983L30.9233 16.4859Z" fill="#55AD63"/>
</svg>
